#!OML:ASF H:\Terrain\Patient Classification 1\Animal1\Tuesday\Animal1.ASF
:FULLY-SPECIFIED
:DEGREES
981
root 15.8257 15.4097 -13.658 12.8078 26.8639 -2.73063
lowerback 2.56697 -2.40437 -2.06193
upperback -9.01375 -3.04293 3.54312
thorax -10.7618 -1.08995 5.32292
lowerneck 7.91068 -15.6734 -7.53716
upperneck -15.2153 -19.6854 19.9183
head -2.92147 -10.6536 7.80728
rclavicle 6.42323e-014 -1.70955e-014
rhumerus -39.3721 46.7055 -43.8493
rradius 139.648
rwrist -33.1509
rhand -21.2665 44.3431
rfingers 7.12502
rthumb 5.11707 14.4249
lclavicle 6.42323e-014 -1.70955e-014
lhumerus -50.0397 -21.3087 40.0591
lradius 144.06
lwrist 13.8398
lhand 6.67456 25.4398
lfingers 7.12502
lthumb 31.9659 52.6526
rfemur -38.1348 10.2671 6.78898
rtibia 44.9289
rfoot -24.1868 -23.7302
rtoes 32.1741
lfemur -43.9421 -19.3252 -9.76921
ltibia 52.1591
lfoot -22.0177 16.5432
ltoes 1.05417
982
root 15.8247 15.4064 -13.6516 12.8556 26.5737 -2.44318
lowerback 2.65212 -2.34796 -2.36228
upperback -8.97671 -3.00124 3.469
thorax -10.7662 -1.04842 5.41055
lowerneck 7.8838 -15.6496 -7.83088
upperneck -15.0956 -19.6917 20.0947
head -2.82798 -10.651 7.88067
rclavicle 4.54968e-014 1.82882e-014
rhumerus -39.0348 46.845 -43.6743
rradius 139.525
rwrist -33.2322
rhand -21.1699 44.4819
rfingers 7.12502
rthumb 5.21034 14.566
lclavicle 4.54968e-014 1.82882e-014
lhumerus -49.9954 -21.72 40.278
lradius 144.188
lwrist 13.24
lhand 7.08546 24.9907
lfingers 7.12502
lthumb 32.357 52.1244
rfemur -38.1812 10.2654 6.51453
rtibia 45.0084
rfoot -23.7454 -23.9413
rtoes 31.2529
lfemur -43.7142 -19.2558 -10.1202
ltibia 52.1235
lfoot -21.8111 16.699
ltoes 0.402979
983
root 15.8238 15.4065 -13.6447 12.8192 26.3109 -2.32335
lowerback 2.69501 -2.30414 -2.50385
upperback -8.9137 -2.95533 3.47803
thorax -10.7195 -1.01639 5.49449
lowerneck 7.76447 -15.6002 -7.9015
upperneck -15.054 -19.6547 19.8871
head -2.81801 -10.6106 7.8172
rclavicle 1.79403e-014 -1.11319e-014
rhumerus -38.7269 46.997 -43.4774
rradius 139.455
rwrist -33.2267
rhand -20.9261 45.4721
rfingers 7.12502
rthumb 5.44571 15.5621
lclavicle 1.79403e-014 -1.11319e-014
lhumerus -50.0333 -22.014 40.5582
lradius 144.292
lwrist 12.5473
lhand 7.4711 24.4236
lfingers 7.12502
lthumb 32.724 51.4816
rfemur -38.2759 10.4216 6.33645
rtibia 45.0325
rfoot -23.1975 -24.0654
rtoes 31.3133
lfemur -43.4532 -19.0819 -10.3386
ltibia 52.0719
lfoot -21.5331 16.9589
ltoes -1.55304
984
root 15.8234 15.4118 -13.6358 12.7214 26.1365 -2.31576
lowerback 2.72638 -2.27322 -2.50891
upperback -8.81958 -2.91465 3.49636
thorax -10.6351 -1.00016 5.50951
lowerneck 7.63559 -15.6294 -7.8935
upperneck -15.0116 -19.7302 19.5228
head -2.81793 -10.6193 7.69363
rclavicle -3.75206e-014 -6.75868e-015
rhumerus -38.7656 47.1198 -43.6201
rradius 139.391
rwrist -32.9602
rhand -21.4119 45.7284
rfingers 7.12502
rthumb 4.97667 15.8069
lclavicle -3.75206e-014 -6.75868e-015
lhumerus -50.0367 -22.2909 40.748
lradius 144.412
lwrist 11.9838
lhand 7.16892 24.3746
lfingers 7.12502
lthumb 32.4365 51.492
rfemur -38.2206 10.5501 6.31688
rtibia 44.9989
rfoot -23.2242 -23.769
rtoes 32.4103
lfemur -43.2164 -18.953 -10.4215
ltibia 52.0436
lfoot -21.5863 16.8197
ltoes -1.59855
985
root 15.8217 15.4152 -13.625 12.5935 26.0187 -2.37157
lowerback 2.80469 -2.24491 -2.4551
upperback -8.75266 -2.87514 3.48713
thorax -10.6135 -0.988099 5.46592
lowerneck 7.53888 -15.6737 -7.90393
upperneck -14.8008 -19.8408 19.2342
head -2.75819 -10.6476 7.58365
rclavicle -1.50579e-014 -3.57812e-014
rhumerus -39.1618 47.2365 -43.9568
rradius 139.442
rwrist -32.617
rhand -22.2412 45.5536
rfingers 7.12502
rthumb 4.17589 15.6148
lclavicle -1.50579e-014 -3.57812e-014
lhumerus -49.7852 -22.5412 40.6913
lradius 144.409
lwrist 11.7703
lhand 6.84242 24.464
lfingers 7.12502
lthumb 32.1257 51.6447
rfemur -38.1152 10.7395 6.37574
rtibia 44.9785
rfoot -22.9983 -23.9413
rtoes 31.3148
lfemur -43.0192 -18.876 -10.4116
ltibia 52.0411
lfoot -21.7472 16.5918
ltoes -1.51318
